<svg xmlns="http://www.w3.org/2000/svg" viewBox="0 0 500 500" width="100%" height="100%">
  <g transform="translate(0, 10)">
    <!-- SQ Icon Emblem -->
    <g transform="translate(250, 140) scale(1.15)">
      <!-- S Character top left -->
      <path d="M -22,-68 C -42,-68 -54,-54 -54,-38 C -54,-20 -38,-14 -14,-7 C 6,0 16,10 16,24 C 16,36 6,48 -14,48 C -30,48 -44,38 -48,26 L -35,22 C -32,30 -22,36 -12,36 C -2,36 4,28 4,20 C 4,10 -6,4 -24,-2 C -46,-9 -52,-20 -52,-38 C -52,-56 -36,-78 -18,-78 C 3,-78 18,-64 20,-52 L 8,-50 C 6,-58 -6,-68 -22,-68 Z" fill="#0F172A"/>
      
      <!-- Q Character bottom right -->
      <path d="M 12,-10 C -12,-10 -30,8 -30,32 C -30,56 -12,74 12,74 C 23,74 34,69 41,60 L 52,74 L 62,66 L 50,51 C 53,45 54,39 54,32 C 54,8 36,-10 12,-10 Z M 12,2 C 28,2 41,15 41,32 C 41,40 37,48 31,54 L 22,42 L 14,48 L 23,60 C 19,62 16,63 12,63 C -4,63 -17,50 -17,32 C -17,15 -4,2 12,2 Z" fill="#0F172A"/>
      
      <!-- Diagonal Arrow cutting across center -->
      <!-- Arrow Shaft -->
      <path d="M -54,16 L 44,-72 L 52,-64 L -46,24 Z" fill="#0F172A" />
      <!-- Arrow Head -->
      <path d="M 32,-78 L 64,-78 L 64,-46 L 53,-52 L 53,-67 L 38,-67 Z" fill="#0F172A"/>
    </g>

    <!-- Logo Text: SHIFT QUEST -->
    <text x="250" y="315" text-anchor="middle" font-family="'Cinzel', 'Playfair Display', 'Times New Roman', serif" font-weight="700" font-size="34" letter-spacing="9" fill="#0F172A">SHIFT QUEST</text>

    <!-- Subtitle: — CONSULTING LLP — -->
    <g fill="#0F172A">
      <line x1="90" y1="352" x2="140" y2="352" stroke="#0F172A" stroke-width="2.5"/>
      <text x="250" y="357" text-anchor="middle" font-family="'Inter', 'Montserrat', system-ui, sans-serif" font-weight="600" font-size="15" letter-spacing="7" fill="#0F172A">CONSULTING LLP</text>
      <line x1="360" y1="352" x2="410" y2="352" stroke="#0F172A" stroke-width="2.5"/>
    </g>

    <!-- Tagline: Transforming Potential into Performance -->
    <text x="250" y="395" text-anchor="middle" font-family="'Georgia', 'Playfair Display', serif" font-style="italic" font-size="16" letter-spacing="0.5" fill="#334155">Transforming Potential into Performance</text>
  </g>
</svg>
